<svg width="929" height="796" viewBox="0 0 929 796" fill="none" xmlns="http://www.w3.org/2000/svg">
<g clip-path="url(#clip0_193_186)">
<rect width="929" height="796" fill="white"/>
<path d="M752 760L752 784L143.232 784L143.232 427" stroke="#222222" stroke-width="1.5" stroke-linecap="square"/>
<path d="M138.375 431.25L143.375 426L148.375 431.25" stroke="#222222" stroke-width="1.5" stroke-linecap="square"/>
<rect x="608.5" y="504.5" width="287" height="79" stroke="#222222"/>
<path opacity="0.88" d="M635.802 539H633.602V524.7H635.802V539ZM642.041 539H639.841V524.7H642.361L649.001 535.7H649.041V524.7H651.261V539H648.741L642.081 528H642.041V539ZM661.279 539.28C657.219 539.28 654.599 536.16 654.599 531.86C654.599 527.54 657.239 524.42 661.299 524.42C664.879 524.42 667.099 526.7 667.439 529.56H665.139C664.879 528.16 663.999 526.32 661.259 526.32C658.099 526.32 656.899 529 656.899 531.84C656.899 534.7 658.099 537.38 661.259 537.38C664.019 537.38 664.999 535.54 665.139 533.8H667.439C667.119 536.98 664.879 539.28 661.279 539.28ZM672.82 539H670.62V524.7H676.58C679.74 524.7 681.44 526.18 681.44 528.82C681.44 530.64 680.34 531.96 678.76 532.32V532.36C682.08 532.98 680.86 538.62 681.64 538.86V539H679.28C678.64 538.4 680 533.4 676.5 533.4H672.82V539ZM672.82 531.5H676.1C678.12 531.5 679.22 530.62 679.22 528.98C679.22 527.44 678.34 526.6 676.14 526.6H672.82V531.5ZM695.265 539H684.945V524.7H695.065V526.6H687.145V530.66H694.085V532.56H687.145V537.1H695.265V539ZM699.508 539H697.188L702.508 524.7H704.888L710.248 539H707.848L706.668 535.56H700.688L699.508 539ZM703.668 526.74L701.348 533.7H706.048L703.708 526.74H703.668ZM717.959 539.28C714.339 539.28 711.799 537.4 711.639 534.18H713.919C714.079 536.1 715.219 537.4 717.899 537.4C720.199 537.4 720.899 536.4 720.899 535.1C720.899 533.28 719.499 533.02 716.899 532.36C714.659 531.76 712.199 531.04 712.199 528.32C712.199 525.84 714.119 524.42 717.199 524.42C720.459 524.42 722.579 526.08 722.799 528.96H720.519C720.279 527.24 719.299 526.3 717.219 526.3C715.419 526.3 714.499 526.96 714.499 528.2C714.499 529.8 715.999 530.14 717.839 530.6C720.599 531.3 723.199 531.96 723.199 534.98C723.199 537.44 721.539 539.28 717.959 539.28ZM736.736 539H726.416V524.7H736.536V526.6H728.616V530.66H735.556V532.56H728.616V537.1H736.736V539ZM747.579 539H745.379V524.7H747.579V539ZM753.818 539H751.618V524.7H754.138L760.778 535.7H760.818V524.7H763.038V539H760.518L753.858 528H753.818V539ZM774.655 539H772.455V524.7H782.375V526.6H774.655V530.9H780.895V532.8H774.655V539ZM791.128 539.28C786.848 539.28 784.108 536.14 784.108 531.84C784.108 527.54 786.848 524.42 791.128 524.42C795.408 524.42 798.148 527.54 798.148 531.84C798.148 536.14 795.408 539.28 791.128 539.28ZM791.128 537.38C794.508 537.38 795.848 534.78 795.848 531.84C795.848 528.9 794.508 526.32 791.128 526.32C787.748 526.32 786.408 528.9 786.408 531.84C786.408 534.78 787.748 537.38 791.128 537.38ZM803.696 539H801.496V524.7H807.456C810.616 524.7 812.316 526.18 812.316 528.82C812.316 530.64 811.216 531.96 809.636 532.32V532.36C812.956 532.98 811.736 538.62 812.516 538.86V539H810.156C809.516 538.4 810.876 533.4 807.376 533.4H803.696V539ZM803.696 531.5H806.976C808.996 531.5 810.096 530.62 810.096 528.98C810.096 527.44 809.216 526.6 807.016 526.6H803.696V531.5ZM826.141 539H815.821V524.7H825.941V526.6H818.021V530.66H824.961V532.56H818.021V537.1H826.141V539ZM834.784 539.28C831.164 539.28 828.624 537.4 828.464 534.18H830.744C830.904 536.1 832.044 537.4 834.724 537.4C837.024 537.4 837.724 536.4 837.724 535.1C837.724 533.28 836.324 533.02 833.724 532.36C831.484 531.76 829.024 531.04 829.024 528.32C829.024 525.84 830.944 524.42 834.024 524.42C837.284 524.42 839.404 526.08 839.624 528.96H837.344C837.104 527.24 836.124 526.3 834.044 526.3C832.244 526.3 831.324 526.96 831.324 528.2C831.324 529.8 832.824 530.14 834.664 530.6C837.424 531.3 840.024 531.96 840.024 534.98C840.024 537.44 838.364 539.28 834.784 539.28ZM848.335 539H846.115V526.6H841.495V524.7H852.955V526.6H848.335V539ZM856.906 529.7H855.526L855.286 524.7H857.146L856.906 529.7ZM865.981 539.28C862.361 539.28 859.821 537.4 859.661 534.18H861.941C862.101 536.1 863.241 537.4 865.921 537.4C868.221 537.4 868.921 536.4 868.921 535.1C868.921 533.28 867.521 533.02 864.921 532.36C862.681 531.76 860.221 531.04 860.221 528.32C860.221 525.84 862.141 524.42 865.221 524.42C868.481 524.42 870.601 526.08 870.821 528.96H868.541C868.301 527.24 867.321 526.3 865.241 526.3C863.441 526.3 862.521 526.96 862.521 528.2C862.521 529.8 864.021 530.14 865.861 530.6C868.621 531.3 871.221 531.96 871.221 534.98C871.221 537.44 869.561 539.28 865.981 539.28ZM666.941 563H664.741V548.7H666.941V563ZM673.18 563H670.98V548.7H673.5L680.14 559.7H680.18V548.7H682.4V563H679.88L673.22 552H673.18V563ZM688.638 563H686.438V548.7H696.358V550.6H688.638V554.9H694.878V556.8H688.638V563ZM708.758 563H699.318V548.7H701.518V561.1H708.758V563ZM712.65 563H710.33L715.65 548.7H718.03L723.39 563H720.99L719.81 559.56H713.83L712.65 563ZM716.81 550.74L714.49 557.7H719.19L716.85 550.74H716.81ZM728.233 563H726.073V548.7H728.973L733.093 559.94H733.133L737.273 548.7H740.173V563H738.013V551.9H737.973L734.033 563H732.213L728.273 551.9H728.233V563ZM746.367 563H744.207V548.7H747.107L751.227 559.94H751.267L755.407 548.7H758.307V563H756.147V551.9H756.107L752.167 563H750.347L746.407 551.9H746.367V563ZM763.32 563H761L766.32 548.7H768.7L774.06 563H771.66L770.48 559.56H764.5L763.32 563ZM767.48 550.74L765.16 557.7H769.86L767.52 550.74H767.48ZM783.123 563H776.743V548.7H782.763C785.703 548.7 787.423 550.02 787.423 552.3C787.423 554.06 786.383 554.88 785.203 555.28V555.32C786.703 555.58 787.983 556.68 787.983 558.82C787.983 561.56 786.083 563 783.123 563ZM778.943 554.64H782.703C784.503 554.64 785.123 553.9 785.123 552.62C785.123 551.36 784.363 550.6 782.863 550.6H778.943V554.64ZM778.943 561.1H782.963C785.083 561.1 785.683 560.08 785.683 558.74C785.683 557.24 784.763 556.38 783.263 556.38H778.943V561.1ZM793.483 563H791.283V548.7H793.483V563ZM806.962 563H797.522V548.7H799.722V561.1H806.962V563ZM812.075 563H809.875V548.7H812.075V563ZM821.834 563H819.614V550.6H814.994V548.7H826.454V550.6H821.834V563ZM835.425 563H833.205V557.28L828.085 548.7H830.465L834.305 555.54H834.345L838.185 548.7H840.545L835.425 557.28V563Z" fill="#222222"/>
<rect x="608.5" y="672.5" width="287" height="79" stroke="#222222"/>
<path opacity="0.88" d="M645.088 707H642.888V692.7H645.088V707ZM651.327 707H649.127V692.7H651.647L658.287 703.7H658.327V692.7H660.547V707H658.027L651.367 696H651.327V707ZM670.565 707.28C666.505 707.28 663.885 704.16 663.885 699.86C663.885 695.54 666.525 692.42 670.585 692.42C674.165 692.42 676.385 694.7 676.725 697.56H674.425C674.165 696.16 673.285 694.32 670.545 694.32C667.385 694.32 666.185 697 666.185 699.84C666.185 702.7 667.385 705.38 670.545 705.38C673.305 705.38 674.285 703.54 674.425 701.8H676.725C676.405 704.98 674.165 707.28 670.565 707.28ZM682.106 707H679.906V692.7H685.866C689.026 692.7 690.726 694.18 690.726 696.82C690.726 698.64 689.626 699.96 688.046 700.32V700.36C691.366 700.98 690.146 706.62 690.926 706.86V707H688.566C687.926 706.4 689.286 701.4 685.786 701.4H682.106V707ZM682.106 699.5H685.386C687.406 699.5 688.506 698.62 688.506 696.98C688.506 695.44 687.626 694.6 685.426 694.6H682.106V699.5ZM704.551 707H694.231V692.7H704.351V694.6H696.431V698.66H703.371V700.56H696.431V705.1H704.551V707ZM708.794 707H706.474L711.794 692.7H714.174L719.534 707H717.134L715.954 703.56H709.974L708.794 707ZM712.954 694.74L710.634 701.7H715.334L712.994 694.74H712.954ZM727.245 707.28C723.625 707.28 721.085 705.4 720.925 702.18H723.205C723.365 704.1 724.505 705.4 727.185 705.4C729.485 705.4 730.185 704.4 730.185 703.1C730.185 701.28 728.785 701.02 726.185 700.36C723.945 699.76 721.485 699.04 721.485 696.32C721.485 693.84 723.405 692.42 726.485 692.42C729.745 692.42 731.865 694.08 732.085 696.96H729.805C729.565 695.24 728.585 694.3 726.505 694.3C724.705 694.3 723.785 694.96 723.785 696.2C723.785 697.8 725.285 698.14 727.125 698.6C729.885 699.3 732.485 699.96 732.485 702.98C732.485 705.44 730.825 707.28 727.245 707.28ZM746.022 707H735.702V692.7H745.822V694.6H737.902V698.66H744.842V700.56H737.902V705.1H746.022V707ZM756.865 707H754.665V692.7H756.865V707ZM763.104 707H760.904V692.7H763.424L770.064 703.7H770.104V692.7H772.324V707H769.804L763.144 696H763.104V707ZM783.941 707H781.741V692.7H791.661V694.6H783.941V698.9H790.181V700.8H783.941V707ZM800.413 707.28C796.133 707.28 793.393 704.14 793.393 699.84C793.393 695.54 796.133 692.42 800.413 692.42C804.693 692.42 807.433 695.54 807.433 699.84C807.433 704.14 804.693 707.28 800.413 707.28ZM800.413 705.38C803.793 705.38 805.133 702.78 805.133 699.84C805.133 696.9 803.793 694.32 800.413 694.32C797.033 694.32 795.693 696.9 795.693 699.84C795.693 702.78 797.033 705.38 800.413 705.38ZM812.982 707H810.782V692.7H816.742C819.902 692.7 821.602 694.18 821.602 696.82C821.602 698.64 820.502 699.96 818.922 700.32V700.36C822.242 700.98 821.022 706.62 821.802 706.86V707H819.442C818.802 706.4 820.162 701.4 816.662 701.4H812.982V707ZM812.982 699.5H816.262C818.282 699.5 819.382 698.62 819.382 696.98C819.382 695.44 818.502 694.6 816.302 694.6H812.982V699.5ZM835.427 707H825.107V692.7H835.227V694.6H827.307V698.66H834.247V700.56H827.307V705.1H835.427V707ZM844.07 707.28C840.45 707.28 837.91 705.4 837.75 702.18H840.03C840.19 704.1 841.33 705.4 844.01 705.4C846.31 705.4 847.01 704.4 847.01 703.1C847.01 701.28 845.61 701.02 843.01 700.36C840.77 699.76 838.31 699.04 838.31 696.32C838.31 693.84 840.23 692.42 843.31 692.42C846.57 692.42 848.69 694.08 848.91 696.96H846.63C846.39 695.24 845.41 694.3 843.33 694.3C841.53 694.3 840.61 694.96 840.61 696.2C840.61 697.8 842.11 698.14 843.95 698.6C846.71 699.3 849.31 699.96 849.31 702.98C849.31 705.44 847.65 707.28 844.07 707.28ZM857.621 707H855.401V694.6H850.781V692.7H862.241V694.6H857.621V707ZM725.788 731H723.588V716.7H733.508V718.6H725.788V722.9H732.028V724.8H725.788V731ZM738.668 731H736.468V716.7H738.668V731ZM744.907 731H742.707V716.7H748.667C751.827 716.7 753.527 718.18 753.527 720.82C753.527 722.64 752.427 723.96 750.847 724.32V724.36C754.167 724.98 752.947 730.62 753.727 730.86V731H751.367C750.727 730.4 752.087 725.4 748.587 725.4H744.907V731ZM744.907 723.5H748.187C750.207 723.5 751.307 722.62 751.307 720.98C751.307 719.44 750.427 718.6 748.227 718.6H744.907V723.5ZM767.352 731H757.032V716.7H767.152V718.6H759.232V722.66H766.172V724.56H759.232V729.1H767.352V731ZM775.995 731.28C772.375 731.28 769.835 729.4 769.675 726.18H771.955C772.115 728.1 773.255 729.4 775.935 729.4C778.235 729.4 778.935 728.4 778.935 727.1C778.935 725.28 777.535 725.02 774.935 724.36C772.695 723.76 770.235 723.04 770.235 720.32C770.235 717.84 772.155 716.42 775.235 716.42C778.495 716.42 780.615 718.08 780.835 720.96H778.555C778.315 719.24 777.335 718.3 775.255 718.3C773.455 718.3 772.535 718.96 772.535 720.2C772.535 721.8 774.035 722.14 775.875 722.6C778.635 723.3 781.235 723.96 781.235 726.98C781.235 729.44 779.575 731.28 775.995 731.28Z" fill="#222222"/>
<rect x="0.5" y="336.5" width="287" height="79" stroke="#222222"/>
<path opacity="0.88" d="M55.382 383.28C51.262 383.28 48.942 380.16 48.942 375.84C48.942 371.54 51.562 368.42 55.642 368.42C59.342 368.42 61.302 370.4 61.762 373.12H59.462C59.082 371.32 57.742 370.32 55.622 370.32C52.462 370.32 51.242 373.16 51.242 375.84C51.242 378.54 52.162 381.38 55.502 381.38C57.862 381.38 59.742 379.74 59.762 377.36H55.542V375.52H62.002V383H60.482L59.942 381.02H59.902C58.902 382.48 57.562 383.28 55.382 383.28ZM75.008 383H65.568V368.7H67.768V381.1H75.008V383ZM83.2638 383.28C78.9838 383.28 76.2438 380.14 76.2438 375.84C76.2438 371.54 78.9838 368.42 83.2638 368.42C87.5438 368.42 90.2838 371.54 90.2838 375.84C90.2838 380.14 87.5438 383.28 83.2638 383.28ZM83.2638 381.38C86.6438 381.38 87.9838 378.78 87.9838 375.84C87.9838 372.9 86.6438 370.32 83.2638 370.32C79.8838 370.32 78.5438 372.9 78.5438 375.84C78.5438 378.78 79.8838 381.38 83.2638 381.38ZM100.012 383H93.6321V368.7H99.6521C102.592 368.7 104.312 370.02 104.312 372.3C104.312 374.06 103.272 374.88 102.092 375.28V375.32C103.592 375.58 104.872 376.68 104.872 378.82C104.872 381.56 102.972 383 100.012 383ZM95.8321 374.64H99.5921C101.392 374.64 102.012 373.9 102.012 372.62C102.012 371.36 101.252 370.6 99.7521 370.6H95.8321V374.64ZM95.8321 381.1H99.8521C101.972 381.1 102.572 380.08 102.572 378.74C102.572 377.24 101.652 376.38 100.152 376.38H95.8321V381.1ZM108.781 383H106.461L111.781 368.7H114.161L119.521 383H117.121L115.941 379.56H109.961L108.781 383ZM112.941 370.74L110.621 377.7H115.321L112.981 370.74H112.941ZM131.644 383H122.204V368.7H124.404V381.1H131.644V383ZM143.799 383H141.419L137.859 368.7H140.159L142.679 379.96H142.719L145.679 368.7H147.999L150.979 379.96H151.019L153.539 368.7H155.839L152.259 383H149.899L146.859 371.5H146.819L143.799 383ZM158.893 383H156.573L161.893 368.7H164.273L169.633 383H167.233L166.053 379.56H160.073L158.893 383ZM163.053 370.74L160.733 377.7H165.433L163.093 370.74H163.053ZM174.516 383H172.316V368.7H178.276C181.436 368.7 183.136 370.18 183.136 372.82C183.136 374.64 182.036 375.96 180.456 376.32V376.36C183.776 376.98 182.556 382.62 183.336 382.86V383H180.976C180.336 382.4 181.696 377.4 178.196 377.4H174.516V383ZM174.516 375.5H177.796C179.816 375.5 180.916 374.62 180.916 372.98C180.916 371.44 180.036 370.6 177.836 370.6H174.516V375.5ZM188.801 383H186.641V368.7H189.541L193.661 379.94H193.701L197.841 368.7H200.741V383H198.581V371.9H198.541L194.601 383H192.781L188.841 371.9H188.801V383ZM206.975 383H204.775V368.7H206.975V383ZM213.214 383H211.014V368.7H213.534L220.174 379.7H220.214V368.7H222.434V383H219.914L213.254 372H213.214V383ZM232.232 383.28C228.112 383.28 225.792 380.16 225.792 375.84C225.792 371.54 228.412 368.42 232.492 368.42C236.192 368.42 238.152 370.4 238.612 373.12H236.312C235.932 371.32 234.592 370.32 232.472 370.32C229.312 370.32 228.092 373.16 228.092 375.84C228.092 378.54 229.012 381.38 232.352 381.38C234.712 381.38 236.592 379.74 236.612 377.36H232.392V375.52H238.852V383H237.332L236.792 381.02H236.752C235.752 382.48 234.412 383.28 232.232 383.28Z" fill="#222222"/>
<rect x="232.5" y="168.5" width="287" height="79" stroke="#222222"/>
<path opacity="0.88" d="M346.035 215H335.715V200.7H345.835V202.6H337.915V206.66H344.855V208.56H337.915V213.1H346.035V215ZM358.737 215H349.297V200.7H351.497V213.1H358.737V215ZM368.683 215H366.483V200.7H369.003L375.643 211.7H375.683V200.7H377.903V215H375.383L368.723 204H368.683V215ZM384.14 215H381.94V200.7H384.14V215ZM392.239 199.04H390.919C390.919 197.54 391.639 196.92 392.459 196.92C393.479 196.92 394.379 197.66 394.979 197.66C395.419 197.66 395.479 197.26 395.479 196.96H396.799C396.799 198.5 396.079 199.08 395.259 199.08C394.259 199.08 393.339 198.34 392.759 198.34C392.299 198.34 392.239 198.78 392.239 199.04ZM390.379 215H388.179V200.7H390.699L397.339 211.7H397.379V200.7H399.599V215H397.079L390.419 204H390.379V215ZM409.957 215.28C405.677 215.28 402.937 212.14 402.937 207.84C402.937 203.54 405.677 200.42 409.957 200.42C414.237 200.42 416.977 203.54 416.977 207.84C416.977 212.14 414.237 215.28 409.957 215.28ZM409.957 213.38C413.337 213.38 414.677 210.78 414.677 207.84C414.677 204.9 413.337 202.32 409.957 202.32C406.577 202.32 405.237 204.9 405.237 207.84C405.237 210.78 406.577 213.38 409.957 213.38Z" fill="#222222"/>
<rect x="608.5" y="0.5" width="287" height="79" stroke="#222222"/>
<path opacity="0.88" d="M710.848 47H701.407V32.7H703.607V45.1H710.848V47ZM714.74 47H712.42L717.74 32.7H720.12L725.48 47H723.08L721.9 43.56H715.92L714.74 47ZM718.9 34.74L716.58 41.7H721.28L718.94 34.74H718.9ZM730.363 47H728.163V32.7H730.683L737.323 43.7H737.363V32.7H739.583V47H737.063L730.403 36H730.363V47ZM749.101 47H743.621V32.7H749.061C753.021 32.7 755.421 35.26 755.421 39.86C755.421 44.46 753.061 47 749.101 47ZM745.821 45.1H748.961C752.281 45.1 753.141 42.62 753.141 39.86C753.141 37.1 752.281 34.6 748.961 34.6H745.821V45.1ZM769.665 47.28C765.745 47.28 764.085 45.22 764.085 42.14V32.7H766.285V42.14C766.285 44.36 767.405 45.38 769.665 45.38C771.945 45.38 773.045 44.36 773.045 42.14V32.7H775.265V42.14C775.265 45.22 773.605 47.28 769.665 47.28ZM784.593 47.28C780.973 47.28 778.433 45.4 778.273 42.18H780.553C780.713 44.1 781.853 45.4 784.533 45.4C786.833 45.4 787.533 44.4 787.533 43.1C787.533 41.28 786.133 41.02 783.533 40.36C781.293 39.76 778.833 39.04 778.833 36.32C778.833 33.84 780.753 32.42 783.833 32.42C787.093 32.42 789.213 34.08 789.433 36.96H787.153C786.913 35.24 785.933 34.3 783.853 34.3C782.053 34.3 781.133 34.96 781.133 36.2C781.133 37.8 782.633 38.14 784.473 38.6C787.233 39.3 789.833 39.96 789.833 42.98C789.833 45.44 788.173 47.28 784.593 47.28ZM803.37 47H793.05V32.7H803.17V34.6H795.25V38.66H802.19V40.56H795.25V45.1H803.37V47Z" fill="#222222"/>
<rect x="608.5" y="336.5" width="287" height="79" stroke="#222222"/>
<path opacity="0.88" d="M641.221 383H639.021V368.7H644.981C648.141 368.7 649.841 370.18 649.841 372.82C649.841 374.64 648.741 375.96 647.161 376.32V376.36C650.481 376.98 649.261 382.62 650.041 382.86V383H647.681C647.041 382.4 648.401 377.4 644.901 377.4H641.221V383ZM641.221 375.5H644.501C646.521 375.5 647.621 374.62 647.621 372.98C647.621 371.44 646.741 370.6 644.541 370.6H641.221V375.5ZM654.326 383H652.006L657.326 368.7H659.706L665.066 383H662.666L661.486 379.56H655.506L654.326 383ZM658.486 370.74L656.166 377.7H660.866L658.526 370.74H658.486ZM669.949 383H667.749V368.7H669.949V383ZM676.188 383H673.988V368.7H676.508L683.148 379.7H683.188V368.7H685.408V383H682.888L676.228 372H676.188V383ZM691.646 383H689.446V368.7H699.366V370.6H691.646V374.9H697.886V376.8H691.646V383ZM701.626 383H699.306L704.626 368.7H707.006L712.366 383H709.966L708.786 379.56H702.806L701.626 383ZM705.786 370.74L703.466 377.7H708.166L705.826 370.74H705.786ZM724.489 383H715.049V368.7H717.249V381.1H724.489V383ZM736.841 383H727.401V368.7H729.601V381.1H736.841V383ZM746.786 383H744.586V368.7H750.546C753.706 368.7 755.406 370.18 755.406 372.82C755.406 374.64 754.306 375.96 752.726 376.32V376.36C756.046 376.98 754.826 382.62 755.606 382.86V383H753.246C752.606 382.4 753.966 377.4 750.466 377.4H746.786V383ZM746.786 375.5H750.066C752.086 375.5 753.186 374.62 753.186 372.98C753.186 371.44 752.306 370.6 750.106 370.6H746.786V375.5ZM769.231 383H758.911V368.7H769.031V370.6H761.111V374.66H768.051V376.56H761.111V381.1H769.231V383ZM777.974 383H772.494V368.7H777.934C781.894 368.7 784.294 371.26 784.294 375.86C784.294 380.46 781.934 383 777.974 383ZM774.694 381.1H777.834C781.154 381.1 782.014 378.62 782.014 375.86C782.014 373.1 781.154 370.6 777.834 370.6H774.694V381.1ZM793.159 383.28C789.239 383.28 787.579 381.22 787.579 378.14V368.7H789.779V378.14C789.779 380.36 790.899 381.38 793.159 381.38C795.439 381.38 796.539 380.36 796.539 378.14V368.7H798.759V378.14C798.759 381.22 797.099 383.28 793.159 383.28ZM808.687 383.28C804.627 383.28 802.007 380.16 802.007 375.86C802.007 371.54 804.647 368.42 808.707 368.42C812.287 368.42 814.507 370.7 814.847 373.56H812.547C812.287 372.16 811.407 370.32 808.667 370.32C805.507 370.32 804.307 373 804.307 375.84C804.307 378.7 805.507 381.38 808.667 381.38C811.427 381.38 812.407 379.54 812.547 377.8H814.847C814.527 380.98 812.287 383.28 808.687 383.28ZM823.103 383H820.883V370.6H816.263V368.7H827.723V370.6H823.103V383ZM832.834 383H830.634V368.7H832.834V383ZM843.193 383.28C838.913 383.28 836.173 380.14 836.173 375.84C836.173 371.54 838.913 368.42 843.193 368.42C847.473 368.42 850.213 371.54 850.213 375.84C850.213 380.14 847.473 383.28 843.193 383.28ZM843.193 381.38C846.573 381.38 847.913 378.78 847.913 375.84C847.913 372.9 846.573 370.32 843.193 370.32C839.813 370.32 838.473 372.9 838.473 375.84C838.473 378.78 839.813 381.38 843.193 381.38ZM855.761 383H853.561V368.7H856.081L862.721 379.7H862.761V368.7H864.981V383H862.461L855.801 372H855.761V383Z" fill="#222222"/>
<rect x="608.5" y="168.5" width="287" height="79" stroke="#222222"/>
<path opacity="0.88" d="M644.585 203H634.265V188.7H644.385V190.6H636.465V194.66H643.405V196.56H636.465V201.1H644.585V203ZM653.871 203H651.491L646.451 188.7H648.871L652.671 200.68H652.691L656.471 188.7H658.791L653.871 203ZM661.258 203H658.938L664.258 188.7H666.638L671.998 203H669.598L668.418 199.56H662.438L661.258 203ZM665.418 190.74L663.098 197.7H667.798L665.458 190.74H665.418ZM676.881 203H674.681V188.7H680.641C683.341 188.7 685.321 189.96 685.321 192.96C685.321 195.96 683.341 197.2 680.641 197.2H676.881V203ZM676.881 195.3H680.541C682.201 195.3 683.041 194.56 683.041 192.96C683.041 191.34 682.201 190.6 680.541 190.6H676.881V195.3ZM694.604 203.28C690.324 203.28 687.584 200.14 687.584 195.84C687.584 191.54 690.324 188.42 694.604 188.42C698.884 188.42 701.624 191.54 701.624 195.84C701.624 200.14 698.884 203.28 694.604 203.28ZM694.604 201.38C697.984 201.38 699.324 198.78 699.324 195.84C699.324 192.9 697.984 190.32 694.604 190.32C691.224 190.32 689.884 192.9 689.884 195.84C689.884 198.78 691.224 201.38 694.604 201.38ZM709.794 203H707.574V190.6H702.954V188.7H714.414V190.6H709.794V203ZM719.524 203H717.324V188.7H723.284C726.444 188.7 728.144 190.18 728.144 192.82C728.144 194.64 727.044 195.96 725.464 196.32V196.36C728.784 196.98 727.564 202.62 728.344 202.86V203H725.984C725.344 202.4 726.704 197.4 723.204 197.4H719.524V203ZM719.524 195.5H722.804C724.824 195.5 725.924 194.62 725.924 192.98C725.924 191.44 725.044 190.6 722.844 190.6H719.524V195.5ZM732.629 203H730.309L735.629 188.7H738.009L743.369 203H740.969L739.789 199.56H733.809L732.629 203ZM736.789 190.74L734.469 197.7H739.169L736.829 190.74H736.789ZM748.252 203H746.052V188.7H748.572L755.212 199.7H755.252V188.7H757.472V203H754.952L748.292 192H748.252V203ZM766.89 203.28C763.27 203.28 760.73 201.4 760.57 198.18H762.85C763.01 200.1 764.15 201.4 766.83 201.4C769.13 201.4 769.83 200.4 769.83 199.1C769.83 197.28 768.43 197.02 765.83 196.36C763.59 195.76 761.13 195.04 761.13 192.32C761.13 189.84 763.05 188.42 766.13 188.42C769.39 188.42 771.51 190.08 771.73 192.96H769.45C769.21 191.24 768.23 190.3 766.15 190.3C764.35 190.3 763.43 190.96 763.43 192.2C763.43 193.8 764.93 194.14 766.77 194.6C769.53 195.3 772.13 195.96 772.13 198.98C772.13 201.44 770.47 203.28 766.89 203.28ZM777.547 203H775.347V188.7H781.307C784.007 188.7 785.987 189.96 785.987 192.96C785.987 195.96 784.007 197.2 781.307 197.2H777.547V203ZM777.547 195.3H781.207C782.867 195.3 783.707 194.56 783.707 192.96C783.707 191.34 782.867 190.6 781.207 190.6H777.547V195.3ZM791.227 203H789.027V188.7H791.227V203ZM797.466 203H795.266V188.7H801.226C804.386 188.7 806.086 190.18 806.086 192.82C806.086 194.64 804.986 195.96 803.406 196.32V196.36C806.726 196.98 805.506 202.62 806.286 202.86V203H803.926C803.286 202.4 804.646 197.4 801.146 197.4H797.466V203ZM797.466 195.5H800.746C802.766 195.5 803.866 194.62 803.866 192.98C803.866 191.44 802.986 190.6 800.786 190.6H797.466V195.5ZM810.571 203H808.251L813.571 188.7H815.951L821.311 203H818.911L817.731 199.56H811.751L810.571 203ZM814.731 190.74L812.411 197.7H817.111L814.771 190.74H814.731ZM827.859 203H825.639V190.6H821.019V188.7H832.479V190.6H827.859V203ZM837.59 203H835.39V188.7H837.59V203ZM847.949 203.28C843.669 203.28 840.929 200.14 840.929 195.84C840.929 191.54 843.669 188.42 847.949 188.42C852.229 188.42 854.969 191.54 854.969 195.84C854.969 200.14 852.229 203.28 847.949 203.28ZM847.949 201.38C851.329 201.38 852.669 198.78 852.669 195.84C852.669 192.9 851.329 190.32 847.949 190.32C844.569 190.32 843.229 192.9 843.229 195.84C843.229 198.78 844.569 201.38 847.949 201.38ZM860.517 203H858.317V188.7H860.837L867.477 199.7H867.517V188.7H869.737V203H867.217L860.557 192H860.517V203ZM694.004 227H691.804V212.7H697.764C700.924 212.7 702.624 214.18 702.624 216.82C702.624 218.64 701.524 219.96 699.944 220.32V220.36C703.264 220.98 702.044 226.62 702.824 226.86V227H700.464C699.824 226.4 701.184 221.4 697.684 221.4H694.004V227ZM694.004 219.5H697.284C699.304 219.5 700.404 218.62 700.404 216.98C700.404 215.44 699.524 214.6 697.324 214.6H694.004V219.5ZM716.449 227H706.129V212.7H716.249V214.6H708.329V218.66H715.269V220.56H708.329V225.1H716.449V227ZM725.191 227H719.711V212.7H725.151C729.111 212.7 731.511 215.26 731.511 219.86C731.511 224.46 729.151 227 725.191 227ZM721.911 225.1H725.051C728.371 225.1 729.231 222.62 729.231 219.86C729.231 217.1 728.371 214.6 725.051 214.6H721.911V225.1ZM740.376 227.28C736.456 227.28 734.796 225.22 734.796 222.14V212.7H736.996V222.14C736.996 224.36 738.116 225.38 740.376 225.38C742.656 225.38 743.756 224.36 743.756 222.14V212.7H745.976V222.14C745.976 225.22 744.316 227.28 740.376 227.28ZM755.904 227.28C751.844 227.28 749.224 224.16 749.224 219.86C749.224 215.54 751.864 212.42 755.924 212.42C759.504 212.42 761.724 214.7 762.064 217.56H759.764C759.504 216.16 758.624 214.32 755.884 214.32C752.724 214.32 751.524 217 751.524 219.84C751.524 222.7 752.724 225.38 755.884 225.38C758.644 225.38 759.624 223.54 759.764 221.8H762.064C761.744 224.98 759.504 227.28 755.904 227.28ZM770.32 227H768.1V214.6H763.48V212.7H774.94V214.6H770.32V227ZM780.051 227H777.851V212.7H780.051V227ZM790.41 227.28C786.13 227.28 783.39 224.14 783.39 219.84C783.39 215.54 786.13 212.42 790.41 212.42C794.69 212.42 797.43 215.54 797.43 219.84C797.43 224.14 794.69 227.28 790.41 227.28ZM790.41 225.38C793.79 225.38 795.13 222.78 795.13 219.84C795.13 216.9 793.79 214.32 790.41 214.32C787.03 214.32 785.69 216.9 785.69 219.84C785.69 222.78 787.03 225.38 790.41 225.38ZM802.979 227H800.779V212.7H803.299L809.939 223.7H809.979V212.7H812.199V227H809.679L803.019 216H802.979V227Z" fill="#222222"/>
<path d="M221 208L143 208L143 328" stroke="#222222" stroke-width="1.5" stroke-linecap="square"/>
<path d="M217 203L222.25 208L217 213" stroke="#222222" stroke-width="1.5" stroke-linecap="square"/>
<path d="M904 711L928 711L928 208.5L906 208.5" stroke="#222222" stroke-width="1.5" stroke-linecap="square"/>
<path d="M910.25 203.375L905 208.375L910.25 213.375" stroke="#222222" stroke-width="1.5" stroke-linecap="square"/>
<path d="M600 711L576 711L576 548.5L598 548.5" stroke="#222222" stroke-width="1.5" stroke-linecap="square"/>
<path d="M593.75 543.375L599 548.375L593.75 553.375" stroke="#222222" stroke-width="1.5" stroke-linecap="square"/>
<g clip-path="url(#clip1_193_186)">
<path d="M528 208L597 208" stroke="#222222" stroke-width="1.5" stroke-linecap="square" stroke-linejoin="round"/>
<path d="M593 203L598.25 208L593 213" stroke="#222222" stroke-width="1.5" stroke-linecap="square"/>
</g>
<g clip-path="url(#clip2_193_186)">
<path d="M752 256L752 325" stroke="#222222" stroke-width="1.5" stroke-linecap="square" stroke-linejoin="round"/>
<path d="M757 321L752 326.25L747 321" stroke="#222222" stroke-width="1.5" stroke-linecap="square"/>
</g>
<g clip-path="url(#clip3_193_186)">
<path d="M752 424L752 493" stroke="#222222" stroke-width="1.5" stroke-linecap="square" stroke-linejoin="round"/>
<path d="M757 489L752 494.25L747 489" stroke="#222222" stroke-width="1.5" stroke-linecap="square"/>
</g>
<g clip-path="url(#clip4_193_186)">
<path d="M752 592L752 661" stroke="#222222" stroke-width="1.5" stroke-linecap="square" stroke-linejoin="round"/>
<path d="M757 657L752 662.25L747 657" stroke="#222222" stroke-width="1.5" stroke-linecap="square"/>
</g>
<g clip-path="url(#clip5_193_186)">
<path d="M752 88L752 157" stroke="#222222" stroke-width="1.5" stroke-linecap="square" stroke-linejoin="round"/>
<path d="M757 153L752 158.25L747 153" stroke="#222222" stroke-width="1.5" stroke-linecap="square"/>
</g>
</g>
<defs>
<clipPath id="clip0_193_186">
<rect width="929" height="796" fill="white"/>
</clipPath>
<clipPath id="clip1_193_186">
<rect width="72" height="24" fill="white" transform="translate(528 196)"/>
</clipPath>
<clipPath id="clip2_193_186">
<rect width="72" height="24" fill="white" transform="translate(764 256) rotate(90)"/>
</clipPath>
<clipPath id="clip3_193_186">
<rect width="72" height="24" fill="white" transform="translate(764 424) rotate(90)"/>
</clipPath>
<clipPath id="clip4_193_186">
<rect width="72" height="24" fill="white" transform="translate(764 592) rotate(90)"/>
</clipPath>
<clipPath id="clip5_193_186">
<rect width="72" height="24" fill="white" transform="translate(764 88) rotate(90)"/>
</clipPath>
</defs>
</svg>
