<svg width="34" height="34" viewBox="0 0 34 34" fill="none" xmlns="http://www.w3.org/2000/svg">
<path d="M1.25 17C1.25 8.30161 8.30144 1.25 17 1.25C25.6984 1.25 32.75 8.30162 32.75 17C32.75 25.6984 25.6984 32.75 17 32.75C8.30144 32.75 1.25 25.6984 1.25 17Z" stroke="white" stroke-width="2.5"/>
<path d="M18.8732 27.7034H15.1268V23.957H18.8732V27.7034ZM20.3447 19.3975C19.1709 20.2667 18.8732 20.5659 18.8732 21.283V21.9073H15.1268V21.283C15.1268 18.601 16.8532 17.3212 18.1138 16.3874C19.3659 15.4592 20.122 14.8988 20.122 13.1653C20.122 11.4439 18.7216 10.0434 17 10.0434C15.2784 10.0434 13.878 11.4439 13.878 13.1653H10.1314C10.1314 9.37825 13.2126 6.29663 17 6.29663C20.7876 6.29663 23.8686 9.37825 23.8686 13.1653C23.8686 16.7859 21.748 18.3575 20.3447 19.3975Z" fill="white"/>
</svg>
