<svg width="24" height="24" viewBox="0 0 24 24" fill="none" xmlns="http://www.w3.org/2000/svg">
<g opacity="0.88">
<path d="M1.25 12C1.25 6.063 6.06289 1.25 12 1.25C17.937 1.25 22.75 6.06301 22.75 12C22.75 17.937 17.937 22.75 12 22.75C6.06289 22.75 1.25 17.937 1.25 12Z" stroke="white" stroke-width="2.5"/>
<path d="M13.3221 19.556H10.6775V16.9115H13.3221V19.556ZM14.3607 13.693C13.5322 14.3065 13.3221 14.5177 13.3221 15.024V15.4646H10.6775V15.024C10.6775 13.1307 11.8962 12.2273 12.786 11.5682C13.6699 10.913 14.2036 10.5174 14.2036 9.29375C14.2036 8.07865 13.215 7.0901 11.9998 7.0901C10.7846 7.0901 9.79603 8.07865 9.79603 9.29375H7.15137C7.15137 6.62057 9.32637 4.44531 11.9998 4.44531C14.6734 4.44531 16.8482 6.62057 16.8482 9.29375C16.8482 11.8495 15.3514 12.9589 14.3607 13.693Z" fill="white"/>
</g>
</svg>
